<mxfile host="65bd71144e">
    <diagram id="-QuaU2I3eOpg4E4MXZqt" name="Page-1">
        <mxGraphModel dx="1061" dy="722" grid="1" gridSize="10" guides="1" tooltips="1" connect="1" arrows="1" fold="1" page="1" pageScale="1" pageWidth="850" pageHeight="1100" math="0" shadow="0">
            <root>
                <mxCell id="0"/>
                <mxCell id="1" parent="0"/>
                <mxCell id="3rqoDeQiqfZfBrHeeUxg-1" value="PrecosActivos" style="shape=ext;margin=3;double=1;whiteSpace=wrap;html=1;align=center;" parent="1" vertex="1">
                    <mxGeometry x="582.5" y="57.5" width="115" height="57.5" as="geometry"/>
                </mxCell>
                <mxCell id="3rqoDeQiqfZfBrHeeUxg-9" value="" style="shape=rhombus;double=1;perimeter=rhombusPerimeter;whiteSpace=wrap;html=1;align=center;" parent="1" vertex="1">
                    <mxGeometry x="620" y="145" width="40" height="30" as="geometry"/>
                </mxCell>
                <mxCell id="3rqoDeQiqfZfBrHeeUxg-12" value="" style="endArrow=none;html=1;rounded=0;entryX=0.5;entryY=0;entryDx=0;entryDy=0;exitX=0.5;exitY=1;exitDx=0;exitDy=0;" parent="1" source="3rqoDeQiqfZfBrHeeUxg-1" target="3rqoDeQiqfZfBrHeeUxg-9" edge="1">
                    <mxGeometry relative="1" as="geometry">
                        <mxPoint x="500" y="130" as="sourcePoint"/>
                        <mxPoint x="590" y="130" as="targetPoint"/>
                    </mxGeometry>
                </mxCell>
                <mxCell id="3rqoDeQiqfZfBrHeeUxg-13" value="N" style="resizable=0;html=1;align=right;verticalAlign=bottom;" parent="3rqoDeQiqfZfBrHeeUxg-12" connectable="0" vertex="1">
                    <mxGeometry x="1" relative="1" as="geometry"/>
                </mxCell>
                <mxCell id="3rqoDeQiqfZfBrHeeUxg-14" value="Activos" style="whiteSpace=wrap;html=1;align=center;" parent="1" vertex="1">
                    <mxGeometry x="590" y="209.99999999999994" width="100" height="40" as="geometry"/>
                </mxCell>
                <mxCell id="3rqoDeQiqfZfBrHeeUxg-19" value="" style="endArrow=none;html=1;rounded=0;exitX=0.5;exitY=1;exitDx=0;exitDy=0;entryX=0.5;entryY=0;entryDx=0;entryDy=0;" parent="1" source="3rqoDeQiqfZfBrHeeUxg-9" target="3rqoDeQiqfZfBrHeeUxg-14" edge="1">
                    <mxGeometry relative="1" as="geometry">
                        <mxPoint x="930" y="130" as="sourcePoint"/>
                        <mxPoint x="680" y="170" as="targetPoint"/>
                    </mxGeometry>
                </mxCell>
                <mxCell id="3rqoDeQiqfZfBrHeeUxg-20" value="1" style="resizable=0;html=1;align=right;verticalAlign=bottom;" parent="3rqoDeQiqfZfBrHeeUxg-19" connectable="0" vertex="1">
                    <mxGeometry x="1" relative="1" as="geometry"/>
                </mxCell>
                <mxCell id="3rqoDeQiqfZfBrHeeUxg-23" value="" style="endArrow=none;html=1;rounded=0;dashed=1;dashPattern=1 2;exitX=1;exitY=1;exitDx=0;exitDy=0;entryX=1;entryY=0.5;entryDx=0;entryDy=0;" parent="1" source="3rqoDeQiqfZfBrHeeUxg-14" target="3rqoDeQiqfZfBrHeeUxg-29" edge="1">
                    <mxGeometry relative="1" as="geometry">
                        <mxPoint x="360" y="-20" as="sourcePoint"/>
                        <mxPoint x="365" y="-10" as="targetPoint"/>
                        <Array as="points"/>
                    </mxGeometry>
                </mxCell>
                <mxCell id="3rqoDeQiqfZfBrHeeUxg-24" value="N" style="resizable=0;html=1;align=right;verticalAlign=bottom;" parent="3rqoDeQiqfZfBrHeeUxg-23" connectable="0" vertex="1">
                    <mxGeometry x="1" relative="1" as="geometry">
                        <mxPoint y="-5" as="offset"/>
                    </mxGeometry>
                </mxCell>
                <mxCell id="3rqoDeQiqfZfBrHeeUxg-27" value="" style="endArrow=none;html=1;rounded=0;dashed=1;dashPattern=1 2;entryX=0;entryY=0.5;entryDx=0;entryDy=0;exitX=0.75;exitY=1;exitDx=0;exitDy=0;" parent="1" source="3rqoDeQiqfZfBrHeeUxg-14" target="3rqoDeQiqfZfBrHeeUxg-29" edge="1">
                    <mxGeometry relative="1" as="geometry">
                        <mxPoint x="650" y="251" as="sourcePoint"/>
                        <mxPoint x="315" y="-10" as="targetPoint"/>
                        <Array as="points"/>
                    </mxGeometry>
                </mxCell>
                <mxCell id="3rqoDeQiqfZfBrHeeUxg-28" value="N" style="resizable=0;html=1;align=right;verticalAlign=bottom;" parent="3rqoDeQiqfZfBrHeeUxg-27" connectable="0" vertex="1">
                    <mxGeometry x="1" relative="1" as="geometry">
                        <mxPoint y="-5" as="offset"/>
                    </mxGeometry>
                </mxCell>
                <mxCell id="3rqoDeQiqfZfBrHeeUxg-29" value="" style="shape=rhombus;perimeter=rhombusPerimeter;whiteSpace=wrap;html=1;align=center;" parent="1" vertex="1">
                    <mxGeometry x="665" y="260" width="25" height="20" as="geometry"/>
                </mxCell>
                <mxCell id="3rqoDeQiqfZfBrHeeUxg-35" value="Intervencoes" style="whiteSpace=wrap;html=1;align=center;" parent="1" vertex="1">
                    <mxGeometry x="305" y="462" width="100" height="40" as="geometry"/>
                </mxCell>
                <mxCell id="3rqoDeQiqfZfBrHeeUxg-36" value="Funcionarios" style="whiteSpace=wrap;html=1;align=center;" parent="1" vertex="1">
                    <mxGeometry x="160" y="105" width="100" height="40" as="geometry"/>
                </mxCell>
                <mxCell id="3rqoDeQiqfZfBrHeeUxg-40" value="Equipas" style="whiteSpace=wrap;html=1;align=center;" parent="1" vertex="1">
                    <mxGeometry x="160" y="270.00000000000006" width="100" height="40" as="geometry"/>
                </mxCell>
                <mxCell id="3rqoDeQiqfZfBrHeeUxg-45" value="" style="shape=rhombus;perimeter=rhombusPerimeter;whiteSpace=wrap;html=1;align=center;" parent="1" vertex="1">
                    <mxGeometry x="500" y="110" width="47.5" height="30" as="geometry"/>
                </mxCell>
                <mxCell id="3rqoDeQiqfZfBrHeeUxg-48" value="" style="shape=rhombus;perimeter=rhombusPerimeter;whiteSpace=wrap;html=1;align=center;" parent="1" vertex="1">
                    <mxGeometry x="490.99999999999994" y="332.5" width="37.5" height="30" as="geometry"/>
                </mxCell>
                <mxCell id="3rqoDeQiqfZfBrHeeUxg-56" value="" style="endArrow=none;html=1;rounded=0;entryX=0;entryY=0.5;entryDx=0;entryDy=0;exitX=0.5;exitY=1;exitDx=0;exitDy=0;" parent="1" source="3rqoDeQiqfZfBrHeeUxg-45" target="3rqoDeQiqfZfBrHeeUxg-14" edge="1">
                    <mxGeometry relative="1" as="geometry">
                        <mxPoint x="534" y="170" as="sourcePoint"/>
                        <mxPoint x="320" y="130" as="targetPoint"/>
                        <Array as="points">
                            <mxPoint x="524" y="230"/>
                        </Array>
                    </mxGeometry>
                </mxCell>
                <mxCell id="3rqoDeQiqfZfBrHeeUxg-57" value="N" style="resizable=0;html=1;align=right;verticalAlign=bottom;" parent="3rqoDeQiqfZfBrHeeUxg-56" connectable="0" vertex="1">
                    <mxGeometry x="1" relative="1" as="geometry"/>
                </mxCell>
                <mxCell id="3rqoDeQiqfZfBrHeeUxg-58" value="" style="endArrow=none;html=1;rounded=0;exitX=1;exitY=0.5;exitDx=0;exitDy=0;entryX=0;entryY=0.5;entryDx=0;entryDy=0;" parent="1" source="3rqoDeQiqfZfBrHeeUxg-36" target="3rqoDeQiqfZfBrHeeUxg-45" edge="1">
                    <mxGeometry relative="1" as="geometry">
                        <mxPoint x="490" y="230" as="sourcePoint"/>
                        <mxPoint x="580" y="290" as="targetPoint"/>
                        <Array as="points">
                            <mxPoint x="434" y="125"/>
                        </Array>
                    </mxGeometry>
                </mxCell>
                <mxCell id="3rqoDeQiqfZfBrHeeUxg-59" value="1" style="resizable=0;html=1;align=right;verticalAlign=bottom;" parent="3rqoDeQiqfZfBrHeeUxg-58" connectable="0" vertex="1">
                    <mxGeometry x="1" relative="1" as="geometry"/>
                </mxCell>
                <mxCell id="3rqoDeQiqfZfBrHeeUxg-60" value="" style="endArrow=none;html=1;rounded=0;entryX=0.5;entryY=0;entryDx=0;entryDy=0;exitX=0.112;exitY=0.999;exitDx=0;exitDy=0;exitPerimeter=0;" parent="1" source="3rqoDeQiqfZfBrHeeUxg-14" target="3rqoDeQiqfZfBrHeeUxg-48" edge="1">
                    <mxGeometry relative="1" as="geometry">
                        <mxPoint x="602" y="251" as="sourcePoint"/>
                        <mxPoint x="290" y="150" as="targetPoint"/>
                    </mxGeometry>
                </mxCell>
                <mxCell id="3rqoDeQiqfZfBrHeeUxg-61" value="1" style="resizable=0;html=1;align=right;verticalAlign=bottom;" parent="3rqoDeQiqfZfBrHeeUxg-60" connectable="0" vertex="1">
                    <mxGeometry x="1" relative="1" as="geometry"/>
                </mxCell>
                <mxCell id="3rqoDeQiqfZfBrHeeUxg-83" value="" style="shape=rhombus;perimeter=rhombusPerimeter;whiteSpace=wrap;html=1;align=center;" parent="1" vertex="1">
                    <mxGeometry x="323.99999999999994" y="369.9999999999999" width="60" height="30" as="geometry"/>
                </mxCell>
                <mxCell id="3rqoDeQiqfZfBrHeeUxg-86" value="" style="endArrow=none;html=1;rounded=0;entryX=0.5;entryY=1;entryDx=0;entryDy=0;exitX=0.5;exitY=0;exitDx=0;exitDy=0;" parent="1" source="3rqoDeQiqfZfBrHeeUxg-35" target="3rqoDeQiqfZfBrHeeUxg-83" edge="1">
                    <mxGeometry relative="1" as="geometry">
                        <mxPoint x="700" y="295.00000000000006" as="sourcePoint"/>
                        <mxPoint x="790" y="184.99999999999997" as="targetPoint"/>
                        <Array as="points"/>
                    </mxGeometry>
                </mxCell>
                <mxCell id="3rqoDeQiqfZfBrHeeUxg-87" value="N" style="resizable=0;html=1;align=right;verticalAlign=bottom;" parent="3rqoDeQiqfZfBrHeeUxg-86" connectable="0" vertex="1">
                    <mxGeometry x="1" relative="1" as="geometry">
                        <mxPoint y="18" as="offset"/>
                    </mxGeometry>
                </mxCell>
                <mxCell id="3rqoDeQiqfZfBrHeeUxg-88" value="" style="endArrow=none;html=1;rounded=0;exitX=0.5;exitY=1;exitDx=0;exitDy=0;entryX=0.5;entryY=0;entryDx=0;entryDy=0;" parent="1" source="cXVS1_0L-VFArpp06NCw-39" target="3rqoDeQiqfZfBrHeeUxg-83" edge="1">
                    <mxGeometry relative="1" as="geometry">
                        <mxPoint x="993.5699999999999" y="417.7199999999999" as="sourcePoint"/>
                        <mxPoint x="413.49" y="545.72" as="targetPoint"/>
                    </mxGeometry>
                </mxCell>
                <mxCell id="3rqoDeQiqfZfBrHeeUxg-89" value="1" style="resizable=0;html=1;align=right;verticalAlign=bottom;" parent="3rqoDeQiqfZfBrHeeUxg-88" connectable="0" vertex="1">
                    <mxGeometry x="1" relative="1" as="geometry"/>
                </mxCell>
                <mxCell id="3rqoDeQiqfZfBrHeeUxg-92" value="" style="shape=rhombus;perimeter=rhombusPerimeter;whiteSpace=wrap;html=1;align=center;" parent="1" vertex="1">
                    <mxGeometry x="190" y="369.15" width="40" height="30" as="geometry"/>
                </mxCell>
                <mxCell id="3rqoDeQiqfZfBrHeeUxg-93" value="" style="endArrow=none;html=1;rounded=0;exitX=0;exitY=0.5;exitDx=0;exitDy=0;entryX=0.5;entryY=1;entryDx=0;entryDy=0;" parent="1" source="3rqoDeQiqfZfBrHeeUxg-35" target="3rqoDeQiqfZfBrHeeUxg-92" edge="1">
                    <mxGeometry relative="1" as="geometry">
                        <mxPoint x="618.82" y="403" as="sourcePoint"/>
                        <mxPoint x="208.82" y="522.76" as="targetPoint"/>
                        <Array as="points">
                            <mxPoint x="210" y="482"/>
                        </Array>
                    </mxGeometry>
                </mxCell>
                <mxCell id="3rqoDeQiqfZfBrHeeUxg-94" value="N" style="resizable=0;html=1;align=right;verticalAlign=bottom;direction=south;" parent="3rqoDeQiqfZfBrHeeUxg-93" connectable="0" vertex="1">
                    <mxGeometry x="1" relative="1" as="geometry">
                        <mxPoint x="10" y="21" as="offset"/>
                    </mxGeometry>
                </mxCell>
                <mxCell id="3rqoDeQiqfZfBrHeeUxg-96" value="" style="endArrow=none;html=1;rounded=0;entryX=0.5;entryY=0;entryDx=0;entryDy=0;exitX=0.5;exitY=1;exitDx=0;exitDy=0;" parent="1" source="3rqoDeQiqfZfBrHeeUxg-40" target="3rqoDeQiqfZfBrHeeUxg-92" edge="1">
                    <mxGeometry relative="1" as="geometry">
                        <mxPoint x="645" y="460.0000000000001" as="sourcePoint"/>
                        <mxPoint x="605" y="460.0000000000001" as="targetPoint"/>
                    </mxGeometry>
                </mxCell>
                <mxCell id="3rqoDeQiqfZfBrHeeUxg-97" value="N" style="resizable=0;html=1;align=right;verticalAlign=bottom;" parent="3rqoDeQiqfZfBrHeeUxg-96" connectable="0" vertex="1">
                    <mxGeometry x="1" relative="1" as="geometry"/>
                </mxCell>
                <mxCell id="3rqoDeQiqfZfBrHeeUxg-110" value="Preco" style="ellipse;whiteSpace=wrap;html=1;align=center;" parent="1" vertex="1">
                    <mxGeometry x="645" y="20" width="50" height="20" as="geometry"/>
                </mxCell>
                <mxCell id="3rqoDeQiqfZfBrHeeUxg-111" value="&lt;span style=&quot;border-bottom: 1px dotted&quot;&gt;DtAtualizacao&lt;br&gt;&lt;/span&gt;" style="ellipse;whiteSpace=wrap;html=1;align=center;" parent="1" vertex="1">
                    <mxGeometry x="550" y="20" width="90" height="30" as="geometry"/>
                </mxCell>
                <mxCell id="3rqoDeQiqfZfBrHeeUxg-116" value="" style="endArrow=none;html=1;rounded=0;exitX=0.5;exitY=1;exitDx=0;exitDy=0;entryX=0.5;entryY=0;entryDx=0;entryDy=0;" parent="1" source="3rqoDeQiqfZfBrHeeUxg-111" target="3rqoDeQiqfZfBrHeeUxg-1" edge="1">
                    <mxGeometry relative="1" as="geometry">
                        <mxPoint x="530" y="90" as="sourcePoint"/>
                        <mxPoint x="690" y="90" as="targetPoint"/>
                    </mxGeometry>
                </mxCell>
                <mxCell id="3rqoDeQiqfZfBrHeeUxg-117" value="" style="endArrow=none;html=1;rounded=0;exitX=0.5;exitY=1;exitDx=0;exitDy=0;entryX=0.5;entryY=0;entryDx=0;entryDy=0;" parent="1" source="3rqoDeQiqfZfBrHeeUxg-110" target="3rqoDeQiqfZfBrHeeUxg-1" edge="1">
                    <mxGeometry relative="1" as="geometry">
                        <mxPoint x="622.5" y="30" as="sourcePoint"/>
                        <mxPoint x="650" y="67.5" as="targetPoint"/>
                    </mxGeometry>
                </mxCell>
                <mxCell id="3rqoDeQiqfZfBrHeeUxg-118" value="ID" style="ellipse;whiteSpace=wrap;html=1;align=center;fontStyle=4;" parent="1" vertex="1">
                    <mxGeometry x="708.74" y="115" width="27.52" height="20" as="geometry"/>
                </mxCell>
                <mxCell id="3rqoDeQiqfZfBrHeeUxg-119" value="Nome" style="ellipse;whiteSpace=wrap;html=1;align=center;" parent="1" vertex="1">
                    <mxGeometry x="735" y="121" width="37.52" height="20" as="geometry"/>
                </mxCell>
                <mxCell id="3rqoDeQiqfZfBrHeeUxg-123" value="ID" style="ellipse;whiteSpace=wrap;html=1;align=center;fontStyle=4;" parent="1" vertex="1">
                    <mxGeometry x="70" y="290" width="65" height="20" as="geometry"/>
                </mxCell>
                <mxCell id="3rqoDeQiqfZfBrHeeUxg-125" value="DtFim" style="ellipse;whiteSpace=wrap;html=1;align=center;" parent="1" vertex="1">
                    <mxGeometry x="363.2" y="549.76" width="49.98" height="25" as="geometry"/>
                </mxCell>
                <mxCell id="3rqoDeQiqfZfBrHeeUxg-129" value="" style="endArrow=none;html=1;rounded=0;exitX=0;exitY=0.25;exitDx=0;exitDy=0;entryX=1;entryY=0.5;entryDx=0;entryDy=0;" parent="1" source="3rqoDeQiqfZfBrHeeUxg-40" target="3rqoDeQiqfZfBrHeeUxg-123" edge="1">
                    <mxGeometry relative="1" as="geometry">
                        <mxPoint x="717.5" y="-96.25000000000011" as="sourcePoint"/>
                        <mxPoint x="690" y="-58.750000000000114" as="targetPoint"/>
                    </mxGeometry>
                </mxCell>
                <mxCell id="3rqoDeQiqfZfBrHeeUxg-131" value="" style="endArrow=none;html=1;rounded=0;exitX=0.5;exitY=0;exitDx=0;exitDy=0;entryX=0.5;entryY=1;entryDx=0;entryDy=0;" parent="1" source="3rqoDeQiqfZfBrHeeUxg-125" target="3rqoDeQiqfZfBrHeeUxg-35" edge="1">
                    <mxGeometry relative="1" as="geometry">
                        <mxPoint x="516.32" y="335" as="sourcePoint"/>
                        <mxPoint x="533.82" y="370" as="targetPoint"/>
                    </mxGeometry>
                </mxCell>
                <mxCell id="3rqoDeQiqfZfBrHeeUxg-132" value="PerMeses" style="ellipse;whiteSpace=wrap;html=1;align=center;" parent="1" vertex="1">
                    <mxGeometry x="288.20000000000005" y="559.76" width="75" height="25" as="geometry"/>
                </mxCell>
                <mxCell id="3rqoDeQiqfZfBrHeeUxg-133" value="" style="endArrow=none;html=1;rounded=0;exitX=0.5;exitY=1;exitDx=0;exitDy=0;entryX=1;entryY=0;entryDx=0;entryDy=0;" parent="1" source="3rqoDeQiqfZfBrHeeUxg-35" target="3rqoDeQiqfZfBrHeeUxg-132" edge="1">
                    <mxGeometry relative="1" as="geometry">
                        <mxPoint x="433.82" y="512.5" as="sourcePoint"/>
                        <mxPoint x="433.82" y="527.5" as="targetPoint"/>
                    </mxGeometry>
                </mxCell>
                <mxCell id="3rqoDeQiqfZfBrHeeUxg-134" value="" style="endArrow=none;html=1;rounded=0;exitX=0.5;exitY=1;exitDx=0;exitDy=0;entryX=0.5;entryY=0;entryDx=0;entryDy=0;" parent="1" source="cXVS1_0L-VFArpp06NCw-42" target="3rqoDeQiqfZfBrHeeUxg-36" edge="1">
                    <mxGeometry relative="1" as="geometry">
                        <mxPoint x="-60" y="140" as="sourcePoint"/>
                        <mxPoint x="210" y="110" as="targetPoint"/>
                    </mxGeometry>
                </mxCell>
                <mxCell id="3rqoDeQiqfZfBrHeeUxg-136" value="" style="endArrow=none;html=1;rounded=0;exitX=0;exitY=0.5;exitDx=0;exitDy=0;entryX=1;entryY=0;entryDx=0;entryDy=0;" parent="1" source="3rqoDeQiqfZfBrHeeUxg-118" target="3rqoDeQiqfZfBrHeeUxg-14" edge="1">
                    <mxGeometry relative="1" as="geometry">
                        <mxPoint x="581.25" y="407.5" as="sourcePoint"/>
                        <mxPoint x="535" y="445" as="targetPoint"/>
                    </mxGeometry>
                </mxCell>
                <mxCell id="3rqoDeQiqfZfBrHeeUxg-137" value="" style="endArrow=none;html=1;rounded=0;exitX=0;exitY=0.5;exitDx=0;exitDy=0;entryX=1;entryY=0;entryDx=0;entryDy=0;" parent="1" source="3rqoDeQiqfZfBrHeeUxg-119" target="3rqoDeQiqfZfBrHeeUxg-14" edge="1">
                    <mxGeometry relative="1" as="geometry">
                        <mxPoint x="790.0000000000227" y="165" as="sourcePoint"/>
                        <mxPoint x="700" y="240" as="targetPoint"/>
                    </mxGeometry>
                </mxCell>
                <mxCell id="3rqoDeQiqfZfBrHeeUxg-138" value="DtAquisacao" style="ellipse;whiteSpace=wrap;html=1;align=center;" parent="1" vertex="1">
                    <mxGeometry x="740" y="140" width="87.52" height="20" as="geometry"/>
                </mxCell>
                <mxCell id="3rqoDeQiqfZfBrHeeUxg-139" value="Estado" style="ellipse;whiteSpace=wrap;html=1;align=center;" parent="1" vertex="1">
                    <mxGeometry x="719" y="204" width="47.52" height="20" as="geometry"/>
                </mxCell>
                <mxCell id="3rqoDeQiqfZfBrHeeUxg-140" value="Marca" style="ellipse;whiteSpace=wrap;html=1;align=center;" parent="1" vertex="1">
                    <mxGeometry x="718.72" y="180" width="37.52" height="20" as="geometry"/>
                </mxCell>
                <mxCell id="3rqoDeQiqfZfBrHeeUxg-141" value="Modelo" style="ellipse;whiteSpace=wrap;html=1;align=center;" parent="1" vertex="1">
                    <mxGeometry x="730" y="160" width="47.52" height="20" as="geometry"/>
                </mxCell>
                <mxCell id="3rqoDeQiqfZfBrHeeUxg-142" value="Localizacao" style="ellipse;whiteSpace=wrap;html=1;align=center;" parent="1" vertex="1">
                    <mxGeometry x="750" y="190" width="77.52" height="20" as="geometry"/>
                </mxCell>
                <mxCell id="3rqoDeQiqfZfBrHeeUxg-143" value="" style="endArrow=none;html=1;rounded=0;exitX=0;exitY=0.5;exitDx=0;exitDy=0;entryX=1;entryY=0;entryDx=0;entryDy=0;" parent="1" source="3rqoDeQiqfZfBrHeeUxg-138" target="3rqoDeQiqfZfBrHeeUxg-14" edge="1">
                    <mxGeometry relative="1" as="geometry">
                        <mxPoint x="750.0400000000227" y="175" as="sourcePoint"/>
                        <mxPoint x="700" y="240" as="targetPoint"/>
                    </mxGeometry>
                </mxCell>
                <mxCell id="3rqoDeQiqfZfBrHeeUxg-145" value="" style="endArrow=none;html=1;rounded=0;exitX=0;exitY=0.5;exitDx=0;exitDy=0;entryX=1;entryY=0;entryDx=0;entryDy=0;" parent="1" source="3rqoDeQiqfZfBrHeeUxg-140" target="3rqoDeQiqfZfBrHeeUxg-14" edge="1">
                    <mxGeometry relative="1" as="geometry">
                        <mxPoint x="750" y="210" as="sourcePoint"/>
                        <mxPoint x="700" y="240" as="targetPoint"/>
                    </mxGeometry>
                </mxCell>
                <mxCell id="3rqoDeQiqfZfBrHeeUxg-147" value="" style="endArrow=none;html=1;rounded=0;exitX=0;exitY=0.5;exitDx=0;exitDy=0;entryX=1;entryY=0;entryDx=0;entryDy=0;" parent="1" source="3rqoDeQiqfZfBrHeeUxg-141" target="3rqoDeQiqfZfBrHeeUxg-14" edge="1">
                    <mxGeometry relative="1" as="geometry">
                        <mxPoint x="750.0399999999963" y="230" as="sourcePoint"/>
                        <mxPoint x="700" y="240" as="targetPoint"/>
                    </mxGeometry>
                </mxCell>
                <mxCell id="3rqoDeQiqfZfBrHeeUxg-148" value="" style="endArrow=none;html=1;rounded=0;entryX=1;entryY=0;entryDx=0;entryDy=0;exitX=0;exitY=0.5;exitDx=0;exitDy=0;" parent="1" source="3rqoDeQiqfZfBrHeeUxg-142" target="3rqoDeQiqfZfBrHeeUxg-14" edge="1">
                    <mxGeometry relative="1" as="geometry">
                        <mxPoint x="740" y="260" as="sourcePoint"/>
                        <mxPoint x="700" y="240" as="targetPoint"/>
                    </mxGeometry>
                </mxCell>
                <mxCell id="3rqoDeQiqfZfBrHeeUxg-152" value="NIF" style="ellipse;whiteSpace=wrap;html=1;align=center;" parent="1" vertex="1">
                    <mxGeometry x="170" y="70" width="25" height="20" as="geometry"/>
                </mxCell>
                <mxCell id="3rqoDeQiqfZfBrHeeUxg-153" value="Nome" style="ellipse;whiteSpace=wrap;html=1;align=center;" parent="1" vertex="1">
                    <mxGeometry x="175" y="50" width="35" height="20" as="geometry"/>
                </mxCell>
                <mxCell id="3rqoDeQiqfZfBrHeeUxg-154" value="DtNascimento" style="ellipse;whiteSpace=wrap;html=1;align=center;" parent="1" vertex="1">
                    <mxGeometry x="170" y="20" width="80" height="20" as="geometry"/>
                </mxCell>
                <mxCell id="3rqoDeQiqfZfBrHeeUxg-155" value="Morada" style="ellipse;whiteSpace=wrap;html=1;align=center;" parent="1" vertex="1">
                    <mxGeometry x="353.75" y="50" width="50" height="20" as="geometry"/>
                </mxCell>
                <mxCell id="3rqoDeQiqfZfBrHeeUxg-156" value="CodigoPostal" style="ellipse;whiteSpace=wrap;html=1;align=center;" parent="1" vertex="1">
                    <mxGeometry x="353.75" y="70" width="80" height="20" as="geometry"/>
                </mxCell>
                <mxCell id="3rqoDeQiqfZfBrHeeUxg-157" value="Localidade" style="ellipse;whiteSpace=wrap;html=1;align=center;" parent="1" vertex="1">
                    <mxGeometry x="353.75" y="90" width="62.5" height="20" as="geometry"/>
                </mxCell>
                <mxCell id="3rqoDeQiqfZfBrHeeUxg-159" value="Telefone" style="ellipse;whiteSpace=wrap;html=1;align=center;" parent="1" vertex="1">
                    <mxGeometry x="280" y="40" width="55" height="20" as="geometry"/>
                </mxCell>
                <mxCell id="3rqoDeQiqfZfBrHeeUxg-160" value="Telemovel" style="ellipse;whiteSpace=wrap;html=1;align=center;" parent="1" vertex="1">
                    <mxGeometry x="250" y="20" width="67.5" height="20" as="geometry"/>
                </mxCell>
                <mxCell id="3rqoDeQiqfZfBrHeeUxg-161" value="" style="endArrow=none;html=1;rounded=0;exitX=0.5;exitY=1;exitDx=0;exitDy=0;entryX=0.5;entryY=0;entryDx=0;entryDy=0;" parent="1" source="3rqoDeQiqfZfBrHeeUxg-152" target="3rqoDeQiqfZfBrHeeUxg-36" edge="1">
                    <mxGeometry relative="1" as="geometry">
                        <mxPoint x="-50" y="160" as="sourcePoint"/>
                        <mxPoint x="30" y="230" as="targetPoint"/>
                    </mxGeometry>
                </mxCell>
                <mxCell id="3rqoDeQiqfZfBrHeeUxg-162" value="" style="endArrow=none;html=1;rounded=0;exitX=0.5;exitY=1;exitDx=0;exitDy=0;entryX=0.5;entryY=0;entryDx=0;entryDy=0;" parent="1" source="3rqoDeQiqfZfBrHeeUxg-153" target="3rqoDeQiqfZfBrHeeUxg-36" edge="1">
                    <mxGeometry relative="1" as="geometry">
                        <mxPoint x="-50" y="180" as="sourcePoint"/>
                        <mxPoint x="40" y="240" as="targetPoint"/>
                    </mxGeometry>
                </mxCell>
                <mxCell id="3rqoDeQiqfZfBrHeeUxg-164" value="" style="endArrow=none;html=1;rounded=0;exitX=0;exitY=0.5;exitDx=0;exitDy=0;entryX=1;entryY=0.5;entryDx=0;entryDy=0;" parent="1" source="3rqoDeQiqfZfBrHeeUxg-155" target="26UziNUqNVUWN8RB3shb-3" edge="1">
                    <mxGeometry relative="1" as="geometry">
                        <mxPoint x="476.25" y="90" as="sourcePoint"/>
                        <mxPoint x="426.25" y="110" as="targetPoint"/>
                    </mxGeometry>
                </mxCell>
                <mxCell id="3rqoDeQiqfZfBrHeeUxg-165" value="" style="endArrow=none;html=1;rounded=0;exitX=0;exitY=0.5;exitDx=0;exitDy=0;entryX=1;entryY=0.5;entryDx=0;entryDy=0;" parent="1" source="3rqoDeQiqfZfBrHeeUxg-157" target="26UziNUqNVUWN8RB3shb-3" edge="1">
                    <mxGeometry relative="1" as="geometry">
                        <mxPoint x="466.25" y="140" as="sourcePoint"/>
                        <mxPoint x="426.25" y="130" as="targetPoint"/>
                    </mxGeometry>
                </mxCell>
                <mxCell id="3rqoDeQiqfZfBrHeeUxg-167" value="" style="endArrow=none;html=1;rounded=0;exitX=0;exitY=0.5;exitDx=0;exitDy=0;entryX=1;entryY=0.5;entryDx=0;entryDy=0;" parent="1" source="3rqoDeQiqfZfBrHeeUxg-156" target="26UziNUqNVUWN8RB3shb-3" edge="1">
                    <mxGeometry relative="1" as="geometry">
                        <mxPoint x="476.25" y="150" as="sourcePoint"/>
                        <mxPoint x="426.25" y="120" as="targetPoint"/>
                    </mxGeometry>
                </mxCell>
                <mxCell id="3rqoDeQiqfZfBrHeeUxg-169" value="" style="endArrow=none;html=1;rounded=0;entryX=0.5;entryY=0;entryDx=0;entryDy=0;exitX=0.5;exitY=1;exitDx=0;exitDy=0;" parent="1" source="3rqoDeQiqfZfBrHeeUxg-159" target="3rqoDeQiqfZfBrHeeUxg-36" edge="1">
                    <mxGeometry relative="1" as="geometry">
                        <mxPoint x="-50" y="300" as="sourcePoint"/>
                        <mxPoint x="40" y="240" as="targetPoint"/>
                    </mxGeometry>
                </mxCell>
                <mxCell id="3rqoDeQiqfZfBrHeeUxg-170" value="" style="endArrow=none;html=1;rounded=0;entryX=0.5;entryY=0;entryDx=0;entryDy=0;exitX=0.5;exitY=1;exitDx=0;exitDy=0;" parent="1" source="3rqoDeQiqfZfBrHeeUxg-160" target="3rqoDeQiqfZfBrHeeUxg-36" edge="1">
                    <mxGeometry relative="1" as="geometry">
                        <mxPoint x="-50" y="320" as="sourcePoint"/>
                        <mxPoint x="40" y="240" as="targetPoint"/>
                    </mxGeometry>
                </mxCell>
                <mxCell id="cXVS1_0L-VFArpp06NCw-21" value="" style="endArrow=none;html=1;rounded=0;exitX=0;exitY=0.5;exitDx=0;exitDy=0;entryX=0.5;entryY=1;entryDx=0;entryDy=0;" parent="1" source="26UziNUqNVUWN8RB3shb-7" target="3rqoDeQiqfZfBrHeeUxg-35" edge="1">
                    <mxGeometry relative="1" as="geometry">
                        <mxPoint x="929.4799999999964" y="350" as="sourcePoint"/>
                        <mxPoint x="678.7800000000001" y="479.76" as="targetPoint"/>
                    </mxGeometry>
                </mxCell>
                <mxCell id="cXVS1_0L-VFArpp06NCw-39" value="Competencias" style="whiteSpace=wrap;html=1;align=center;" parent="1" vertex="1">
                    <mxGeometry x="301.5" y="265" width="105" height="35" as="geometry"/>
                </mxCell>
                <mxCell id="cXVS1_0L-VFArpp06NCw-40" value="" style="shape=rhombus;perimeter=rhombusPerimeter;whiteSpace=wrap;html=1;align=center;" parent="1" vertex="1">
                    <mxGeometry x="340" y="190" width="28" height="30" as="geometry"/>
                </mxCell>
                <mxCell id="cXVS1_0L-VFArpp06NCw-41" value="ID" style="ellipse;whiteSpace=wrap;html=1;align=center;fontStyle=4;" parent="1" vertex="1">
                    <mxGeometry x="140" y="70" width="25" height="20" as="geometry"/>
                </mxCell>
                <mxCell id="cXVS1_0L-VFArpp06NCw-42" value="CC" style="ellipse;whiteSpace=wrap;html=1;align=center;" parent="1" vertex="1">
                    <mxGeometry x="155" y="50" width="20" height="20" as="geometry"/>
                </mxCell>
                <mxCell id="cXVS1_0L-VFArpp06NCw-43" value="" style="endArrow=none;html=1;rounded=0;exitX=0.5;exitY=1;exitDx=0;exitDy=0;entryX=0.5;entryY=0;entryDx=0;entryDy=0;" parent="1" source="cXVS1_0L-VFArpp06NCw-41" target="3rqoDeQiqfZfBrHeeUxg-36" edge="1">
                    <mxGeometry relative="1" as="geometry">
                        <mxPoint x="-50" y="150" as="sourcePoint"/>
                        <mxPoint x="40" y="240" as="targetPoint"/>
                    </mxGeometry>
                </mxCell>
                <mxCell id="cXVS1_0L-VFArpp06NCw-44" value="ID" style="ellipse;whiteSpace=wrap;html=1;align=center;fontStyle=4;" parent="1" vertex="1">
                    <mxGeometry x="425" y="260" width="43.33" height="20" as="geometry"/>
                </mxCell>
                <mxCell id="cXVS1_0L-VFArpp06NCw-46" value="Descricao" style="ellipse;whiteSpace=wrap;html=1;align=center;" parent="1" vertex="1">
                    <mxGeometry x="425" y="280" width="66" height="25" as="geometry"/>
                </mxCell>
                <mxCell id="cXVS1_0L-VFArpp06NCw-47" value="" style="endArrow=none;html=1;rounded=0;exitX=0;exitY=0.5;exitDx=0;exitDy=0;entryX=1;entryY=0.5;entryDx=0;entryDy=0;" parent="1" source="cXVS1_0L-VFArpp06NCw-44" target="cXVS1_0L-VFArpp06NCw-39" edge="1">
                    <mxGeometry relative="1" as="geometry">
                        <mxPoint x="599.99" y="175.22000000000003" as="sourcePoint"/>
                        <mxPoint x="599.99" y="190.22000000000003" as="targetPoint"/>
                    </mxGeometry>
                </mxCell>
                <mxCell id="cXVS1_0L-VFArpp06NCw-48" value="" style="endArrow=none;html=1;rounded=0;exitX=0;exitY=0.5;exitDx=0;exitDy=0;entryX=1;entryY=0.5;entryDx=0;entryDy=0;" parent="1" source="cXVS1_0L-VFArpp06NCw-46" target="cXVS1_0L-VFArpp06NCw-39" edge="1">
                    <mxGeometry relative="1" as="geometry">
                        <mxPoint x="327.49" y="355.22" as="sourcePoint"/>
                        <mxPoint x="364.99" y="310.22" as="targetPoint"/>
                    </mxGeometry>
                </mxCell>
                <mxCell id="cXVS1_0L-VFArpp06NCw-49" value="" style="endArrow=none;html=1;rounded=0;entryX=0.5;entryY=0;entryDx=0;entryDy=0;exitX=1;exitY=0.75;exitDx=0;exitDy=0;" parent="1" source="3rqoDeQiqfZfBrHeeUxg-36" target="cXVS1_0L-VFArpp06NCw-40" edge="1">
                    <mxGeometry relative="1" as="geometry">
                        <mxPoint x="264" y="140" as="sourcePoint"/>
                        <mxPoint x="230" y="490" as="targetPoint"/>
                        <Array as="points">
                            <mxPoint x="354" y="135"/>
                        </Array>
                    </mxGeometry>
                </mxCell>
                <mxCell id="cXVS1_0L-VFArpp06NCw-50" value="N" style="resizable=0;html=1;align=right;verticalAlign=bottom;" parent="cXVS1_0L-VFArpp06NCw-49" connectable="0" vertex="1">
                    <mxGeometry x="1" relative="1" as="geometry">
                        <mxPoint as="offset"/>
                    </mxGeometry>
                </mxCell>
                <mxCell id="cXVS1_0L-VFArpp06NCw-53" value="NumElementos" style="ellipse;whiteSpace=wrap;html=1;align=center;" parent="1" vertex="1">
                    <mxGeometry x="40" y="267.5" width="95" height="22.5" as="geometry"/>
                </mxCell>
                <mxCell id="cXVS1_0L-VFArpp06NCw-54" value="" style="endArrow=none;html=1;rounded=0;exitX=0;exitY=0.25;exitDx=0;exitDy=0;entryX=1;entryY=0.5;entryDx=0;entryDy=0;" parent="1" source="3rqoDeQiqfZfBrHeeUxg-40" target="cXVS1_0L-VFArpp06NCw-53" edge="1">
                    <mxGeometry relative="1" as="geometry">
                        <mxPoint x="455" y="353.75" as="sourcePoint"/>
                        <mxPoint x="402.5" y="383.75" as="targetPoint"/>
                    </mxGeometry>
                </mxCell>
                <mxCell id="cXVS1_0L-VFArpp06NCw-55" value="Localizacao" style="ellipse;whiteSpace=wrap;html=1;align=center;" parent="1" vertex="1">
                    <mxGeometry x="52.50000000000001" y="245" width="82.5" height="22.5" as="geometry"/>
                </mxCell>
                <mxCell id="cXVS1_0L-VFArpp06NCw-56" value="" style="endArrow=none;html=1;rounded=0;entryX=1;entryY=0.5;entryDx=0;entryDy=0;exitX=0;exitY=0.25;exitDx=0;exitDy=0;" parent="1" source="3rqoDeQiqfZfBrHeeUxg-40" target="cXVS1_0L-VFArpp06NCw-55" edge="1">
                    <mxGeometry relative="1" as="geometry">
                        <mxPoint x="445" y="343.75" as="sourcePoint"/>
                        <mxPoint x="511.25" y="381.25" as="targetPoint"/>
                    </mxGeometry>
                </mxCell>
                <mxCell id="cXVS1_0L-VFArpp06NCw-57" value="ID" style="ellipse;whiteSpace=wrap;html=1;align=center;fontStyle=4;" parent="1" vertex="1">
                    <mxGeometry x="310.03999999999996" y="514.76" width="24.14" height="20" as="geometry"/>
                </mxCell>
                <mxCell id="cXVS1_0L-VFArpp06NCw-59" value="VlMonetario" style="ellipse;whiteSpace=wrap;html=1;align=center;" parent="1" vertex="1">
                    <mxGeometry x="254.82000000000005" y="534.76" width="86.25" height="25" as="geometry"/>
                </mxCell>
                <mxCell id="cXVS1_0L-VFArpp06NCw-62" value="" style="endArrow=none;html=1;rounded=0;exitX=0.5;exitY=0;exitDx=0;exitDy=0;entryX=0.5;entryY=1;entryDx=0;entryDy=0;" parent="1" source="cXVS1_0L-VFArpp06NCw-57" target="3rqoDeQiqfZfBrHeeUxg-35" edge="1">
                    <mxGeometry relative="1" as="geometry">
                        <mxPoint x="1106.3199999999772" y="355" as="sourcePoint"/>
                        <mxPoint x="1058.86" y="384.9999999999999" as="targetPoint"/>
                    </mxGeometry>
                </mxCell>
                <mxCell id="cXVS1_0L-VFArpp06NCw-63" value="" style="endArrow=none;html=1;rounded=0;exitX=1;exitY=0.5;exitDx=0;exitDy=0;entryX=0.5;entryY=1;entryDx=0;entryDy=0;" parent="1" source="cXVS1_0L-VFArpp06NCw-59" target="3rqoDeQiqfZfBrHeeUxg-35" edge="1">
                    <mxGeometry relative="1" as="geometry">
                        <mxPoint x="743.82" y="305" as="sourcePoint"/>
                        <mxPoint x="673.82" y="365" as="targetPoint"/>
                    </mxGeometry>
                </mxCell>
                <mxCell id="cXVS1_0L-VFArpp06NCw-64" value="DtInicio" style="ellipse;whiteSpace=wrap;html=1;align=center;" parent="1" vertex="1">
                    <mxGeometry x="376.32" y="524.76" width="56.25" height="25" as="geometry"/>
                </mxCell>
                <mxCell id="cXVS1_0L-VFArpp06NCw-65" value="" style="endArrow=none;html=1;rounded=0;exitX=0.5;exitY=0;exitDx=0;exitDy=0;entryX=0.5;entryY=1;entryDx=0;entryDy=0;" parent="1" source="cXVS1_0L-VFArpp06NCw-64" target="3rqoDeQiqfZfBrHeeUxg-35" edge="1">
                    <mxGeometry relative="1" as="geometry">
                        <mxPoint x="801.945" y="280" as="sourcePoint"/>
                        <mxPoint x="673.82" y="365" as="targetPoint"/>
                    </mxGeometry>
                </mxCell>
                <mxCell id="26UziNUqNVUWN8RB3shb-1" value="" style="endArrow=none;html=1;rounded=0;entryX=0.5;entryY=0;entryDx=0;entryDy=0;" parent="1" source="cXVS1_0L-VFArpp06NCw-40" target="cXVS1_0L-VFArpp06NCw-39" edge="1">
                    <mxGeometry relative="1" as="geometry">
                        <mxPoint x="361.24" y="175" as="sourcePoint"/>
                        <mxPoint x="361.24" y="210" as="targetPoint"/>
                    </mxGeometry>
                </mxCell>
                <mxCell id="26UziNUqNVUWN8RB3shb-2" value="N" style="resizable=0;html=1;align=right;verticalAlign=bottom;" parent="26UziNUqNVUWN8RB3shb-1" connectable="0" vertex="1">
                    <mxGeometry x="1" relative="1" as="geometry">
                        <mxPoint y="-31" as="offset"/>
                    </mxGeometry>
                </mxCell>
                <mxCell id="26UziNUqNVUWN8RB3shb-3" value="Endereço" style="ellipse;whiteSpace=wrap;html=1;" parent="1" vertex="1">
                    <mxGeometry x="274" y="70" width="61" height="20" as="geometry"/>
                </mxCell>
                <mxCell id="26UziNUqNVUWN8RB3shb-5" value="" style="endArrow=none;html=1;rounded=0;exitX=0.5;exitY=1;exitDx=0;exitDy=0;entryX=0.75;entryY=0;entryDx=0;entryDy=0;" parent="1" source="26UziNUqNVUWN8RB3shb-3" target="3rqoDeQiqfZfBrHeeUxg-36" edge="1">
                    <mxGeometry relative="1" as="geometry">
                        <mxPoint x="-30" y="220" as="sourcePoint"/>
                        <mxPoint x="40" y="240" as="targetPoint"/>
                    </mxGeometry>
                </mxCell>
                <mxCell id="26UziNUqNVUWN8RB3shb-7" value="Estado" style="ellipse;whiteSpace=wrap;html=1;align=center;" parent="1" vertex="1">
                    <mxGeometry x="400.0000000000001" y="502" width="89.96" height="20" as="geometry"/>
                </mxCell>
                <mxCell id="nF5cd_1LVvKsiRu9TKLO-2" value="" style="endArrow=none;html=1;rounded=0;exitX=0.5;exitY=1;exitDx=0;exitDy=0;entryX=0.5;entryY=0;entryDx=0;entryDy=0;" parent="1" source="3rqoDeQiqfZfBrHeeUxg-154" target="3rqoDeQiqfZfBrHeeUxg-36" edge="1">
                    <mxGeometry relative="1" as="geometry">
                        <mxPoint x="-50" y="200" as="sourcePoint"/>
                        <mxPoint x="190" y="50" as="targetPoint"/>
                    </mxGeometry>
                </mxCell>
                <mxCell id="Uq4hLdQWgpKr5n0dKRvv-3" value="" style="shape=rhombus;perimeter=rhombusPerimeter;whiteSpace=wrap;html=1;align=center;" parent="1" vertex="1">
                    <mxGeometry x="190" y="180" width="40" height="30" as="geometry"/>
                </mxCell>
                <mxCell id="Uq4hLdQWgpKr5n0dKRvv-10" value="" style="endArrow=none;html=1;rounded=0;exitX=0.5;exitY=1;exitDx=0;exitDy=0;entryX=0.5;entryY=0;entryDx=0;entryDy=0;" parent="1" source="3rqoDeQiqfZfBrHeeUxg-36" target="Uq4hLdQWgpKr5n0dKRvv-3" edge="1">
                    <mxGeometry relative="1" as="geometry">
                        <mxPoint x="220" y="530" as="sourcePoint"/>
                        <mxPoint x="240" y="190" as="targetPoint"/>
                    </mxGeometry>
                </mxCell>
                <mxCell id="Uq4hLdQWgpKr5n0dKRvv-11" value="N" style="resizable=0;html=1;align=right;verticalAlign=bottom;" parent="Uq4hLdQWgpKr5n0dKRvv-10" connectable="0" vertex="1">
                    <mxGeometry x="1" relative="1" as="geometry">
                        <mxPoint y="-11" as="offset"/>
                    </mxGeometry>
                </mxCell>
                <mxCell id="Uq4hLdQWgpKr5n0dKRvv-12" value="" style="endArrow=none;html=1;rounded=0;entryX=0.5;entryY=0;entryDx=0;entryDy=0;exitX=0.5;exitY=1;exitDx=0;exitDy=0;" parent="1" source="Uq4hLdQWgpKr5n0dKRvv-3" target="3rqoDeQiqfZfBrHeeUxg-40" edge="1">
                    <mxGeometry relative="1" as="geometry">
                        <mxPoint x="210" y="300" as="sourcePoint"/>
                        <mxPoint x="210" y="340" as="targetPoint"/>
                    </mxGeometry>
                </mxCell>
                <mxCell id="Uq4hLdQWgpKr5n0dKRvv-13" value="N" style="resizable=0;html=1;align=right;verticalAlign=bottom;" parent="Uq4hLdQWgpKr5n0dKRvv-12" connectable="0" vertex="1">
                    <mxGeometry x="1" relative="1" as="geometry">
                        <mxPoint as="offset"/>
                    </mxGeometry>
                </mxCell>
                <mxCell id="Uq4hLdQWgpKr5n0dKRvv-16" style="edgeStyle=orthogonalEdgeStyle;rounded=0;orthogonalLoop=1;jettySize=auto;html=1;exitX=0.5;exitY=1;exitDx=0;exitDy=0;" parent="1" source="3rqoDeQiqfZfBrHeeUxg-92" target="3rqoDeQiqfZfBrHeeUxg-92" edge="1">
                    <mxGeometry relative="1" as="geometry"/>
                </mxCell>
                <mxCell id="Uq4hLdQWgpKr5n0dKRvv-20" value="" style="endArrow=none;html=1;rounded=0;entryX=0.5;entryY=1;entryDx=0;entryDy=0;exitX=0.75;exitY=0;exitDx=0;exitDy=0;" parent="1" source="3rqoDeQiqfZfBrHeeUxg-35" target="3rqoDeQiqfZfBrHeeUxg-48" edge="1">
                    <mxGeometry relative="1" as="geometry">
                        <mxPoint x="364" y="560.2400000000002" as="sourcePoint"/>
                        <mxPoint x="364" y="367.5" as="targetPoint"/>
                        <Array as="points"/>
                    </mxGeometry>
                </mxCell>
                <mxCell id="Uq4hLdQWgpKr5n0dKRvv-21" value="N" style="resizable=0;html=1;align=right;verticalAlign=bottom;direction=south;" parent="Uq4hLdQWgpKr5n0dKRvv-20" connectable="0" vertex="1">
                    <mxGeometry x="1" relative="1" as="geometry">
                        <mxPoint x="11" y="20" as="offset"/>
                    </mxGeometry>
                </mxCell>
                <mxCell id="Uq4hLdQWgpKr5n0dKRvv-26" value="TipoActivos" style="whiteSpace=wrap;html=1;align=center;" parent="1" vertex="1">
                    <mxGeometry x="587.5" y="365" width="105" height="35" as="geometry"/>
                </mxCell>
                <mxCell id="Uq4hLdQWgpKr5n0dKRvv-27" value="ID" style="ellipse;whiteSpace=wrap;html=1;align=center;fontStyle=4;" parent="1" vertex="1">
                    <mxGeometry x="712.48" y="362.5" width="30" height="20" as="geometry"/>
                </mxCell>
                <mxCell id="Uq4hLdQWgpKr5n0dKRvv-28" value="Descricao" style="ellipse;whiteSpace=wrap;html=1;align=center;" parent="1" vertex="1">
                    <mxGeometry x="712.48" y="382.5" width="60" height="20" as="geometry"/>
                </mxCell>
                <mxCell id="Uq4hLdQWgpKr5n0dKRvv-29" value="" style="endArrow=none;html=1;rounded=0;exitX=0;exitY=0.5;exitDx=0;exitDy=0;entryX=1;entryY=0.5;entryDx=0;entryDy=0;" parent="1" source="Uq4hLdQWgpKr5n0dKRvv-27" target="Uq4hLdQWgpKr5n0dKRvv-26" edge="1">
                    <mxGeometry relative="1" as="geometry">
                        <mxPoint x="930.99" y="268.97" as="sourcePoint"/>
                        <mxPoint x="930.99" y="283.97" as="targetPoint"/>
                    </mxGeometry>
                </mxCell>
                <mxCell id="Uq4hLdQWgpKr5n0dKRvv-30" value="" style="endArrow=none;html=1;rounded=0;exitX=0;exitY=0.5;exitDx=0;exitDy=0;entryX=1;entryY=0.5;entryDx=0;entryDy=0;" parent="1" source="Uq4hLdQWgpKr5n0dKRvv-28" target="Uq4hLdQWgpKr5n0dKRvv-26" edge="1">
                    <mxGeometry relative="1" as="geometry">
                        <mxPoint x="658.49" y="448.97" as="sourcePoint"/>
                        <mxPoint x="695.99" y="403.97" as="targetPoint"/>
                    </mxGeometry>
                </mxCell>
                <mxCell id="Uq4hLdQWgpKr5n0dKRvv-34" value="" style="shape=rhombus;perimeter=rhombusPerimeter;whiteSpace=wrap;html=1;align=center;" parent="1" vertex="1">
                    <mxGeometry x="620" y="310" width="40" height="30" as="geometry"/>
                </mxCell>
                <mxCell id="Uq4hLdQWgpKr5n0dKRvv-35" value="" style="endArrow=none;html=1;rounded=0;entryX=0.5;entryY=0;entryDx=0;entryDy=0;exitX=0.5;exitY=1;exitDx=0;exitDy=0;" parent="1" source="Uq4hLdQWgpKr5n0dKRvv-34" target="Uq4hLdQWgpKr5n0dKRvv-26" edge="1">
                    <mxGeometry relative="1" as="geometry">
                        <mxPoint x="690" y="350" as="sourcePoint"/>
                        <mxPoint x="640" y="340" as="targetPoint"/>
                    </mxGeometry>
                </mxCell>
                <mxCell id="Uq4hLdQWgpKr5n0dKRvv-36" value="1" style="resizable=0;html=1;align=right;verticalAlign=bottom;" parent="Uq4hLdQWgpKr5n0dKRvv-35" connectable="0" vertex="1">
                    <mxGeometry x="1" relative="1" as="geometry"/>
                </mxCell>
                <mxCell id="Uq4hLdQWgpKr5n0dKRvv-37" value="" style="endArrow=none;html=1;rounded=0;exitX=0.5;exitY=0;exitDx=0;exitDy=0;entryX=0.5;entryY=1;entryDx=0;entryDy=0;" parent="1" source="Uq4hLdQWgpKr5n0dKRvv-34" target="3rqoDeQiqfZfBrHeeUxg-14" edge="1">
                    <mxGeometry relative="1" as="geometry">
                        <mxPoint x="740" y="320" as="sourcePoint"/>
                        <mxPoint x="690" y="290" as="targetPoint"/>
                        <Array as="points"/>
                    </mxGeometry>
                </mxCell>
                <mxCell id="Uq4hLdQWgpKr5n0dKRvv-38" value="N" style="resizable=0;html=1;align=right;verticalAlign=bottom;" parent="Uq4hLdQWgpKr5n0dKRvv-37" connectable="0" vertex="1">
                    <mxGeometry x="1" relative="1" as="geometry">
                        <mxPoint y="60" as="offset"/>
                    </mxGeometry>
                </mxCell>
                <mxCell id="Uq4hLdQWgpKr5n0dKRvv-44" value="" style="endArrow=none;html=1;rounded=0;exitX=0;exitY=0.5;exitDx=0;exitDy=0;entryX=1;entryY=0;entryDx=0;entryDy=0;" parent="1" source="3rqoDeQiqfZfBrHeeUxg-139" target="3rqoDeQiqfZfBrHeeUxg-14" edge="1">
                    <mxGeometry relative="1" as="geometry">
                        <mxPoint x="737.48" y="180" as="sourcePoint"/>
                        <mxPoint x="700" y="220" as="targetPoint"/>
                    </mxGeometry>
                </mxCell>
                <mxCell id="oTDKhkhvOho8Z5VO3IgD-1" value="DtAtribuicao" style="ellipse;whiteSpace=wrap;html=1;align=center;" parent="1" vertex="1">
                    <mxGeometry x="95" y="386.40999999999997" width="95" height="22.5" as="geometry"/>
                </mxCell>
                <mxCell id="oTDKhkhvOho8Z5VO3IgD-2" value="" style="endArrow=none;html=1;rounded=0;exitX=0;exitY=1;exitDx=0;exitDy=0;entryX=1;entryY=0.5;entryDx=0;entryDy=0;" parent="1" source="3rqoDeQiqfZfBrHeeUxg-92" target="oTDKhkhvOho8Z5VO3IgD-1" edge="1">
                    <mxGeometry relative="1" as="geometry">
                        <mxPoint x="170" y="275.15999999999997" as="sourcePoint"/>
                        <mxPoint x="145" y="295.15999999999997" as="targetPoint"/>
                    </mxGeometry>
                </mxCell>
                <mxCell id="2" value="DtEntrada" style="ellipse;whiteSpace=wrap;html=1;align=center;" parent="1" vertex="1">
                    <mxGeometry x="85" y="173" width="85" height="22.5" as="geometry"/>
                </mxCell>
                <mxCell id="3" value="DtSaida" style="ellipse;whiteSpace=wrap;html=1;align=center;" parent="1" vertex="1">
                    <mxGeometry x="105" y="194.50000000000003" width="65" height="22.5" as="geometry"/>
                </mxCell>
                <mxCell id="4" value="" style="endArrow=none;html=1;rounded=0;entryX=1;entryY=0.5;entryDx=0;entryDy=0;exitX=0;exitY=0.5;exitDx=0;exitDy=0;" parent="1" source="Uq4hLdQWgpKr5n0dKRvv-3" target="2" edge="1">
                    <mxGeometry relative="1" as="geometry">
                        <mxPoint x="160" y="275.71500000000003" as="sourcePoint"/>
                        <mxPoint x="145" y="392.5" as="targetPoint"/>
                    </mxGeometry>
                </mxCell>
                <mxCell id="5" value="" style="endArrow=none;html=1;rounded=0;entryX=1;entryY=0.5;entryDx=0;entryDy=0;exitX=0;exitY=0.5;exitDx=0;exitDy=0;" parent="1" source="Uq4hLdQWgpKr5n0dKRvv-3" target="3" edge="1">
                    <mxGeometry relative="1" as="geometry">
                        <mxPoint x="160" y="275.71500000000003" as="sourcePoint"/>
                        <mxPoint x="157.5000000000001" y="188.75" as="targetPoint"/>
                    </mxGeometry>
                </mxCell>
                <mxCell id="6" value="DtDispensa" style="ellipse;whiteSpace=wrap;html=1;align=center;" parent="1" vertex="1">
                    <mxGeometry x="95" y="408.90999999999997" width="95" height="22.5" as="geometry"/>
                </mxCell>
                <mxCell id="7" value="" style="endArrow=none;html=1;rounded=0;exitX=0;exitY=1;exitDx=0;exitDy=0;entryX=1;entryY=0.5;entryDx=0;entryDy=0;" parent="1" source="3rqoDeQiqfZfBrHeeUxg-92" target="6" edge="1">
                    <mxGeometry relative="1" as="geometry">
                        <mxPoint x="170" y="290" as="sourcePoint"/>
                        <mxPoint x="145" y="310" as="targetPoint"/>
                    </mxGeometry>
                </mxCell>
                <mxCell id="u2YEEx4-MavANywnTEoL-7" value="Profissoes" style="whiteSpace=wrap;html=1;align=center;" parent="1" vertex="1">
                    <mxGeometry x="18.75" y="57.5" width="105" height="35" as="geometry"/>
                </mxCell>
                <mxCell id="u2YEEx4-MavANywnTEoL-8" value="ID" style="ellipse;whiteSpace=wrap;html=1;align=center;fontStyle=4;" parent="1" vertex="1">
                    <mxGeometry x="18.75" y="20" width="43.33" height="20" as="geometry"/>
                </mxCell>
                <mxCell id="u2YEEx4-MavANywnTEoL-9" value="Descricao" style="ellipse;whiteSpace=wrap;html=1;align=center;" parent="1" vertex="1">
                    <mxGeometry x="74" y="15" width="66" height="25" as="geometry"/>
                </mxCell>
                <mxCell id="u2YEEx4-MavANywnTEoL-10" value="" style="endArrow=none;html=1;rounded=0;" parent="1" source="u2YEEx4-MavANywnTEoL-7" target="u2YEEx4-MavANywnTEoL-8" edge="1">
                    <mxGeometry relative="1" as="geometry">
                        <mxPoint x="435" y="280" as="sourcePoint"/>
                        <mxPoint x="416.5" y="292.5" as="targetPoint"/>
                    </mxGeometry>
                </mxCell>
                <mxCell id="u2YEEx4-MavANywnTEoL-11" value="" style="endArrow=none;html=1;rounded=0;entryX=0.348;entryY=0.96;entryDx=0;entryDy=0;entryPerimeter=0;" parent="1" source="u2YEEx4-MavANywnTEoL-7" target="u2YEEx4-MavANywnTEoL-9" edge="1">
                    <mxGeometry relative="1" as="geometry">
                        <mxPoint x="68.49661282174395" y="65" as="sourcePoint"/>
                        <mxPoint x="57.198675853704685" y="49.49714619518659" as="targetPoint"/>
                    </mxGeometry>
                </mxCell>
                <mxCell id="u2YEEx4-MavANywnTEoL-12" value="" style="shape=rhombus;perimeter=rhombusPerimeter;whiteSpace=wrap;html=1;align=center;" parent="1" vertex="1">
                    <mxGeometry x="52.5" y="111" width="40" height="30" as="geometry"/>
                </mxCell>
                <mxCell id="u2YEEx4-MavANywnTEoL-17" value="" style="endArrow=none;html=1;rounded=0;exitX=0;exitY=0.5;exitDx=0;exitDy=0;entryX=1;entryY=0.5;entryDx=0;entryDy=0;" parent="1" source="3rqoDeQiqfZfBrHeeUxg-36" target="u2YEEx4-MavANywnTEoL-12" edge="1">
                    <mxGeometry relative="1" as="geometry">
                        <mxPoint x="340" y="250" as="sourcePoint"/>
                        <mxPoint x="50" y="170" as="targetPoint"/>
                    </mxGeometry>
                </mxCell>
                <mxCell id="u2YEEx4-MavANywnTEoL-18" value="N" style="resizable=0;html=1;align=right;verticalAlign=bottom;" parent="u2YEEx4-MavANywnTEoL-17" connectable="0" vertex="1">
                    <mxGeometry x="1" relative="1" as="geometry"/>
                </mxCell>
                <mxCell id="u2YEEx4-MavANywnTEoL-20" value="" style="endArrow=none;html=1;rounded=0;entryX=0.5;entryY=0;entryDx=0;entryDy=0;exitX=0.5;exitY=1;exitDx=0;exitDy=0;" parent="1" source="u2YEEx4-MavANywnTEoL-7" target="u2YEEx4-MavANywnTEoL-12" edge="1">
                    <mxGeometry relative="1" as="geometry">
                        <mxPoint x="340" y="250" as="sourcePoint"/>
                        <mxPoint x="500" y="250" as="targetPoint"/>
                    </mxGeometry>
                </mxCell>
                <mxCell id="u2YEEx4-MavANywnTEoL-21" value="1" style="resizable=0;html=1;align=right;verticalAlign=bottom;" parent="u2YEEx4-MavANywnTEoL-20" connectable="0" vertex="1">
                    <mxGeometry x="1" relative="1" as="geometry"/>
                </mxCell>
            </root>
        </mxGraphModel>
    </diagram>
</mxfile>